# File created by Blade
# Date/Time:  Wed Apr 08 17:00:17 2015
# Frame Rate: 120.000 fps
#------------------------------------------------------
:FULLY-SPECIFIED
:DEGREES
1156
root 1.117749 35.638825 2.835822 -29.300533 -78.293812 15.166503
Spine 7.972870 -0.127092 -8.138709
Head 5.121792 3.220239 -3.348917
LeftShoulder 6.814040 -0.567573 24.139737
LeftArm 97.303047 45.967639 -36.746714
LeftForeArm -36.107359 -0.000000 99.179654
LeftHand -29.847681 -0.000000 16.074957
LeftHandThumb1 -26.253704 0.000000 33.147579
RightShoulder -4.838394 -31.407066 -21.732698
RightArm 115.516449 17.881966 117.430359
RightForeArm 67.395346 0.000000 123.942004
RightHand 15.368565 0.000000 -0.270939
RightHandThumb1 -24.326973 -0.000000 -32.862282
LeftUpLeg 15.724393 6.285694 5.658559
LeftLeg 12.011762 -0.000000 -0.000000
LeftFoot -14.380232 -3.044368 -11.836899
LeftToeBase 10.411493 -0.000000 -0.000000
RightUpLeg 25.318117 -17.498133 -18.472516
RightLeg 2.048660 -0.000000 -0.000000
RightFoot -12.644568 5.419824 20.009359
RightToeBase 14.454605 -0.000000 -0.000000
1157
root 1.110361 35.638813 2.836147 -29.360104 -78.358405 15.223858
Spine 7.938698 -0.203169 -8.126247
Head 5.324453 3.164850 -3.300942
LeftShoulder 6.849064 -0.608205 24.184356
LeftArm 97.224922 45.971719 -36.815461
LeftForeArm -36.054021 -0.000000 99.240539
LeftHand -29.908080 0.000000 16.098305
LeftHandThumb1 -26.253704 0.000000 33.147579
RightShoulder -4.762453 -31.314734 -21.797656
RightArm 115.452198 17.853471 117.788156
RightForeArm 67.591285 0.000000 123.065711
RightHand 15.468202 -0.000000 -1.871995
RightHandThumb1 -24.326973 -0.000000 -32.862282
LeftUpLeg 15.766016 6.333732 5.682043
LeftLeg 11.986950 -0.000000 -0.000000
LeftFoot -14.385269 -3.041953 -11.862861
LeftToeBase 10.423890 -0.000000 -0.000000
RightUpLeg 25.326191 -17.491668 -18.474601
RightLeg 2.024938 -0.000000 -0.000000
RightFoot -12.612603 5.469196 20.020780
RightToeBase 14.468431 -0.000000 -0.000000
1158
root 1.102630 35.639244 2.836648 -29.431913 -78.434457 15.288735
Spine 7.908106 -0.283434 -8.101668
Head 5.540033 3.101622 -3.286683
LeftShoulder 6.842888 -0.614433 24.210441
LeftArm 97.202473 45.966593 -36.833817
LeftForeArm -35.997415 -0.000000 99.299293
LeftHand -29.935731 -0.000000 16.195252
LeftHandThumb1 -26.253704 0.000000 33.147579
RightShoulder -4.656110 -31.207441 -21.900922
RightArm 115.336700 17.847321 118.088899
RightForeArm 67.841541 -0.000000 122.229237
RightHand 15.628125 -0.000000 -3.254814
RightHandThumb1 -24.326973 -0.000000 -32.862282
LeftUpLeg 15.814120 6.402136 5.715177
LeftLeg 11.967272 -0.000000 -0.000000
LeftFoot -14.388064 -3.048155 -11.867897
LeftToeBase 10.436562 -0.000000 -0.000000
RightUpLeg 25.343916 -17.488375 -18.481563
RightLeg 1.988436 -0.000000 -0.000000
RightFoot -12.562881 5.534981 20.013457
RightToeBase 14.487414 -0.000000 -0.000000
1159
root 1.095120 35.639322 2.836240 -29.521662 -78.517399 15.376020
Spine 7.868869 -0.326521 -8.087932
Head 5.750433 3.014250 -3.241760
LeftShoulder 6.872422 -0.643340 24.236686
LeftArm 97.213173 45.913862 -36.822806
LeftForeArm -36.014685 -0.000000 99.307375
LeftHand -29.917823 -0.000000 16.197689
LeftHandThumb1 -26.253704 0.000000 33.147579
RightShoulder -4.575517 -31.142642 -21.959422
RightArm 115.277360 17.863456 118.365545
RightForeArm 68.179153 -0.000000 121.331306
RightHand 15.802680 -0.000000 -4.607767
RightHandThumb1 -24.326973 -0.000000 -32.862282
LeftUpLeg 15.861029 6.470207 5.744292
LeftLeg 11.940697 -0.000000 -0.000000
LeftFoot -14.385772 -3.046081 -11.875488
LeftToeBase 10.415019 -0.000000 -0.000000
RightUpLeg 25.355719 -17.498880 -18.496576
RightLeg 1.955028 -0.000000 -0.000000
RightFoot -12.508265 5.626983 20.004369
RightToeBase 14.471884 -0.000000 -0.000000
1160
root 1.088464 35.640319 2.836006 -29.630545 -78.603629 15.480133
Spine 7.848119 -0.360584 -8.067592
Head 5.917192 2.898808 -3.204379
LeftShoulder 6.864440 -0.698382 24.249067
LeftArm 97.213470 45.917784 -36.819882
LeftForeArm -36.013099 -0.000000 99.322588
LeftHand -29.907921 -0.000000 16.229095
LeftHandThumb1 -26.253704 0.000000 33.147579
RightShoulder -4.511667 -31.055501 -22.023326
RightArm 115.222233 17.876597 118.625808
RightForeArm 68.486040 -0.000000 120.425464
RightHand 15.876602 -0.000000 -5.323507
RightHandThumb1 -24.326973 -0.000000 -32.862282
LeftUpLeg 15.908665 6.522277 5.763572
LeftLeg 11.919434 -0.000000 -0.000000
LeftFoot -14.355784 -3.028751 -11.959623
LeftToeBase 10.274185 -0.000000 -0.000000
RightUpLeg 25.365560 -17.496035 -18.506221
RightLeg 1.919205 -0.000000 -0.000000
RightFoot -12.450551 5.701417 20.014135
RightToeBase 14.469808 -0.000000 -0.000000
1161
root 1.082311 35.640803 2.835811 -29.728333 -78.698959 15.581958
Spine 7.803974 -0.373835 -8.046875
Head 6.136000 2.750481 -3.127987
LeftShoulder 6.874698 -0.716212 24.279442
LeftArm 97.223145 45.896398 -36.820552
LeftForeArm -36.082641 -0.000000 99.314525
LeftHand -29.855406 -0.000000 16.235293
LeftHandThumb1 -26.253704 0.000000 33.147579
RightShoulder -4.432694 -30.984009 -22.083976
RightArm 115.195285 17.929828 118.885146
RightForeArm 68.875921 -0.000000 119.500154
RightHand 15.853089 0.000000 -5.982385
RightHandThumb1 -24.326973 -0.000000 -32.862282
LeftUpLeg 15.950288 6.566246 5.778927
LeftLeg 11.886422 -0.000000 -0.000000
LeftFoot -14.397270 -2.975316 -11.907172
LeftToeBase 10.406888 -0.000000 -0.000000
RightUpLeg 25.363548 -17.508523 -18.515229
RightLeg 1.887696 -0.000000 -0.000000
RightFoot -12.406032 5.786777 19.995125
RightToeBase 14.503304 -0.000000 -0.000000
1162
root 1.075465 35.641309 2.834548 -29.866529 -78.810675 15.726873
Spine 7.747993 -0.368909 -8.035710
Head 6.370094 2.561205 -3.031598
LeftShoulder 6.898264 -0.721577 24.308824
LeftArm 97.220324 45.878183 -36.835944
LeftForeArm -36.155065 -0.000000 99.303045
LeftHand -29.821891 -0.000000 16.277531
LeftHandThumb1 -26.253704 0.000000 33.147579
RightShoulder -4.302554 -30.906321 -22.159933
RightArm 115.126140 18.041326 119.108310
RightForeArm 69.155106 -0.000000 118.637801
RightHand 16.026431 -0.000000 -7.474805
RightHandThumb1 -24.326973 -0.000000 -32.862282
LeftUpLeg 15.996674 6.640277 5.802660
LeftLeg 11.851201 -0.000000 -0.000000
LeftFoot -14.400180 -2.928973 -11.909514
LeftToeBase 10.383964 -0.000000 -0.000000
RightUpLeg 25.352012 -17.504067 -18.518171
RightLeg 1.857145 -0.000000 -0.000000
RightFoot -12.361799 5.880910 19.984990
RightToeBase 14.547185 -0.000000 -0.000000
